<?xml version="1.0" standalone="no"?>
<!DOCTYPE svg PUBLIC "-//W3C//DTD SVG 1.1//EN" "http://www.w3.org/Graphics/SVG/1.1/DTD/svg11.dtd" >
<svg xmlns="http://www.w3.org/2000/svg" xmlns:xlink="http://www.w3.org/1999/xlink" version="1.1">
<metadata></metadata>
<defs>
<font id="liquid_crystalregular" horiz-adv-x="1036" >
<font-face units-per-em="2048" ascent="1638" descent="-410" />
<missing-glyph horiz-adv-x="614" />
<glyph horiz-adv-x="0" />
<glyph horiz-adv-x="682" />
<glyph unicode=" "  horiz-adv-x="614" />
<glyph unicode="&#x09;" horiz-adv-x="614" />
<glyph unicode="&#xa0;" horiz-adv-x="614" />
<glyph unicode="!" horiz-adv-x="294" d="M-53 719l84 84l86 -84v-430l-86 -86l-82 86zM-53 920v632l84 86l86 -86v-632l-86 -84zM-51 86l82 86l86 -86l-84 -86z" />
<glyph unicode="&#x22;" horiz-adv-x="520" d="M-115 1448l76 74l74 -74v-199l-74 -73l-74 73zM102 1448l76 74l76 -74v-199l-76 -73l-74 73z" />
<glyph unicode="$" horiz-adv-x="1038" d="M-53 279l84 86l86 -86v-93l-84 -86l-84 86zM-51 920l2 532l82 86l86 -86v-532l-86 -84zM45 819l86 86h170l86 -86l-86 -86h-170zM49 86l86 86h170l101 -100l98 100h170l86 -86l-86 -86h-539zM49 1552l86 86h539l86 -86l-86 -86h-170l-101 101l-98 -101h-170zM315 920 l2 532l86 86l86 -86l-2 -532l-86 -84zM317 186v533l84 84l86 -84l2 -533l-86 -86zM418 819l86 86h168l86 -86l-84 -86h-170zM688 719l86 84l86 -84v-533l-84 -86l-86 86zM688 1360l2 92l84 86l86 -86v-92l-86 -86z" />
<glyph unicode="'" horiz-adv-x="292" d="M-127 1241v203l86 84l82 -84v-203l-82 -86z" />
<glyph unicode="(" horiz-adv-x="542" d="M-29 186v623h78l90 -90l2 -533l-86 -86zM-29 829v623l82 86l86 -86v-532l-88 -91h-80zM70 86l86 86h102l86 -86l-86 -86h-102zM70 1552l86 86h100l86 -86l-84 -86h-102z" />
<glyph unicode=")" horiz-adv-x="542" d="M-29 86l84 86h101l86 -86l-84 -86h-103zM-29 1552l82 86h103l86 -86l-86 -86h-101zM170 719l92 90h80l2 -623l-86 -86l-86 86zM170 920l2 532l84 86l86 -86l2 -623h-82z" />
<glyph unicode="*" horiz-adv-x="464" d="M-53 649v94l47 66h112v-113l-67 -47h-92zM-53 877v114h90l69 -47v-115h-112zM127 696v115h113l45 -68l2 -94h-94zM127 829v115l66 47h92v-114l-43 -48h-115z" />
<glyph unicode="+" horiz-adv-x="868" d="M-12 819l84 84h147l82 -84l-84 -84h-145zM231 920l2 155l84 84l86 -84l-2 -155l-84 -86zM233 563v156l84 86l84 -86l2 -156l-86 -84zM332 819l86 84h147l82 -84l-84 -84h-145z" />
<glyph unicode="," horiz-adv-x="294" d="M47 -84l2 256l86 86l84 -86v-84z" />
<glyph unicode="." horiz-adv-x="294" d="M41 88l2 84l86 86l86 -86l-2 -84l-86 -86z" />
<glyph unicode="/" horiz-adv-x="1017" d="M-53 0l2 141l344 668h88v-195l-320 -614h-114zM403 1024l322 614h115v-141l-346 -668h-88z" />
<glyph unicode="0" horiz-adv-x="1048" d="M-47 719l84 84l86 -84l2 -533l-86 -86l-84 86zM-47 920l2 532l84 86l84 -86v-532l-86 -84zM53 86l86 86h539l86 -86l-84 -86h-541zM53 1552l86 86h539l86 -86l-86 -86h-539zM692 719l86 84l86 -84l2 -533l-86 -86l-86 86zM692 920l2 532l84 86l86 -86v-532l-86 -84z" />
<glyph unicode="1" horiz-adv-x="1048" d="M223 1270l2 84l168 170v-244l-90 -88zM424 78v641l84 86l84 -86l2 -635l-84 -84zM424 920v634l84 84l86 -84l-2 -634l-84 -86z" />
<glyph unicode="2" horiz-adv-x="1048" d="M-47 16l2 707l82 86l86 -86l2 -537zM-45 1360v92l84 86l84 -86v-92l-86 -86zM-31 0l170 172h543l170 -172h-883zM53 819l84 86h543l86 -86l-86 -86h-541zM53 1552l86 86h539l86 -86l-86 -86h-539zM692 920l2 532l84 86l86 -86v-532l-86 -84z" />
<glyph unicode="3" horiz-adv-x="1048" d="M-25 86l84 86h598l86 -86l-84 -86h-600zM-25 1552l82 86h600l86 -86l-86 -86h-598zM90 819l86 86h481l86 -86l-86 -86h-481zM672 920l2 532l86 86l84 -86v-532l-86 -84zM674 186v533l84 84l86 -84l2 -533l-86 -86z" />
<glyph unicode="4" horiz-adv-x="1048" d="M-47 920l2 542l82 86l86 -86v-542l-86 -84zM51 819l84 86h543l86 -86l-86 -86h-541zM692 719l86 84l86 -84l2 -633l-86 -86l-86 86zM692 920l2 632l84 86l86 -86v-632l-86 -84z" />
<glyph unicode="5" horiz-adv-x="1048" d="M-47 186v93l82 86l86 -86l2 -93l-86 -86zM-47 1622l172 -174v-528l-90 -91h-80zM-31 1638h881l-170 -172h-543zM51 819l86 86h541l86 -86l-86 -86h-541zM53 86l86 86h539l86 -86l-86 -86h-539zM694 719l86 84l86 -84v-533l-86 -86l-84 86z" />
<glyph unicode="6" horiz-adv-x="1048" d="M-45 186v623h78l90 -90l2 -533l-86 -86zM-45 829v623l84 86l84 -86v-532l-88 -91h-80zM51 819l84 86h543l86 -86l-86 -86h-541zM53 86l86 86h539l86 -86l-84 -86h-541zM53 1552l86 86h539l86 -86l-86 -86h-539zM692 719l86 84l86 -84l2 -533l-86 -86l-86 86z" />
<glyph unicode="7" horiz-adv-x="1048" d="M-23 1552l84 86h695l86 -86l-86 -86h-695zM37 141l348 668h88l2 -184l-321 -625h-115zM496 829v175l231 442h21v-307l-164 -310h-88z" />
<glyph unicode="8" horiz-adv-x="1048" d="M-47 719l84 84l86 -84l2 -533l-86 -86l-84 86zM-47 920l2 532l84 86l84 -86v-532l-86 -84zM51 819l84 86h543l86 -86l-86 -86h-541zM53 86l86 86h539l86 -86l-84 -86h-541zM53 1552l86 86h539l86 -86l-86 -86h-539zM692 719l86 84l86 -84l2 -533l-86 -86l-86 86zM692 920 l2 532l84 86l86 -86v-532l-86 -84z" />
<glyph unicode="9" horiz-adv-x="1048" d="M-47 920l2 532l84 86l84 -86v-532l-86 -84zM53 86l86 86h539l86 -86l-84 -86h-541zM53 819l84 86h543l86 -86l-86 -86h-541zM53 1552l86 86h539l86 -86l-86 -86h-539zM692 719l92 90h80l2 -623l-86 -86l-86 86zM692 920l2 532l84 86l86 -86l2 -623h-82z" />
<glyph unicode=":" horiz-adv-x="294" d="M6 86v84l86 86l86 -86v-84l-86 -86zM6 602v84l86 86l84 -86v-84l-84 -86z" />
<glyph unicode=";" horiz-adv-x="294" d="M12 -84v256l86 86l86 -86l-2 -84zM12 602v84l86 86l84 -86v-84l-84 -86z" />
<glyph unicode="&#x3c;" horiz-adv-x="395" d="M-53 635v174h96l176 -350l-2 -295h-20zM-51 829v175l248 471h22v-295l-174 -351h-96z" />
<glyph unicode="=" horiz-adv-x="835" d="M0 86l84 86h541l86 -86l-86 -86h-539zM0 815l84 86h541l86 -86l-88 -86h-541z" />
<glyph unicode="&#x3e;" horiz-adv-x="395" d="M-53 164v295l174 350h98v-174l-252 -471h-20zM-53 1475h20l252 -471v-175h-98l-172 351z" />
<glyph unicode="?" horiz-adv-x="933" d="M-53 1552l84 86h538l82 -79l-92 -93h-528zM213 719l86 84l86 -84v-430l-86 -86l-84 86zM215 86l84 86l86 -86l-84 -86zM313 819l99 96h149l94 -96l-86 -86h-170zM575 930v522l93 90l90 -90l-2 -532l-86 -84z" />
<glyph unicode="A" horiz-adv-x="1042" d="M-53 809h80l90 -90v-633l-84 -86l-84 86zM-53 1450l86 88l86 -86v-532l-88 -91h-82zM49 819l84 86h543l86 -86l-86 -86h-541zM51 1552l86 86h539l86 -86l-86 -86h-539zM690 920l2 532l84 86l88 -88l2 -621h-84zM694 86v633l90 90h80l2 -723l-86 -86z" />
<glyph unicode="B" horiz-adv-x="1038" d="M-53 16v793h80l90 -90v-533zM-53 1622l170 -170v-532l-90 -91h-78zM-39 0l172 172h541l86 -86l-86 -86h-713zM-37 1638h711l86 -86l-86 -86h-541zM45 819l86 86h541l86 -86l-84 -86h-543zM688 719l86 84l86 -84v-533l-84 -86l-86 86zM688 920l2 532l84 86l86 -86v-532 l-86 -84z" />
<glyph unicode="C" d="M-53 809h80l90 -90v-533l-84 -86l-84 86zM-53 1452l84 86l86 -86v-532l-90 -91h-78zM47 86l86 86h539l86 -86l-86 -86h-539zM47 1552l84 86h541l86 -86l-86 -86h-539zM686 279l84 86l86 -86l2 -93l-86 -86l-84 86zM686 1360v92l86 86l86 -86v-92l-86 -86z" />
<glyph unicode="D" horiz-adv-x="1038" d="M-53 16v793h80l90 -90v-533zM-53 1622l170 -170v-532l-90 -91h-78zM-39 0l172 172h541l86 -86l-86 -86h-713zM-37 1638h711l86 -86l-86 -86h-541zM688 719l90 90h82v-623l-84 -86l-86 86zM688 920l2 532l84 86l86 -86l2 -623h-82z" />
<glyph unicode="E" horiz-adv-x="933" d="M-53 809h80l90 -90v-533l-84 -86l-84 86zM-53 1452l84 86l86 -86v-532l-90 -91h-78zM43 819l86 86h420l86 -86l-86 -86h-420zM47 86l86 86h539l86 -86l-86 -86h-539zM47 1552l84 86h541l86 -86l-86 -86h-539z" />
<glyph unicode="F" horiz-adv-x="933" d="M-53 809h80l90 -90v-633l-84 -86l-84 86zM-53 1452l84 86l86 -86v-532l-90 -91h-78zM43 819l86 86h420l86 -86l-86 -86h-420zM47 1552l84 86h541l86 -86l-86 -86h-539z" />
<glyph unicode="G" d="M-53 809h80l90 -90v-533l-84 -86l-84 86zM-53 1452l84 86l86 -86v-532l-90 -91h-78zM47 86l86 86h539l86 -86l-86 -86h-539zM47 1552l84 86h541l86 -86l-86 -86h-539zM416 819l84 86h342l-172 -172h-168zM686 719l172 170v-703l-86 -86l-84 86z" />
<glyph unicode="H" d="M-53 809h80l90 -90v-633l-84 -86l-84 86zM-53 1552l84 86l86 -86v-632l-90 -91h-78zM43 819l86 86h541l86 -86l-86 -86h-541zM686 719l90 90h82v-723l-84 -86l-86 86zM686 920v632l86 86l86 -86v-723h-80z" />
<glyph unicode="I" horiz-adv-x="294" d="M-53 719l84 84l86 -84v-633l-84 -86l-84 86zM-53 920v632l84 86l86 -86v-632l-86 -84z" />
<glyph unicode="J" horiz-adv-x="1038" d="M-53 279l84 86l86 -86v-93l-84 -86l-84 86zM47 86l86 86h539l86 -86l-86 -86h-539zM418 1552l86 86h170l86 -86l-86 -86h-170zM688 719l90 90h82v-623l-84 -86l-86 86zM688 920l2 532l84 86l86 -86l2 -623h-82z" />
<glyph unicode="K" horiz-adv-x="1026" d="M-53 809h80l90 -90v-633l-84 -86l-84 86zM-53 1552l84 86l86 -86v-632l-90 -91h-78zM43 819l86 86h170l86 -86l-86 -86h-170zM338 739l68 70h83l359 -657l2 -152h-107zM338 899l403 739h107v-151l-356 -658h-86z" />
<glyph unicode="L" horiz-adv-x="933" d="M-53 809h80l90 -90v-533l-84 -86l-84 86zM-53 1552l84 86l86 -86v-632l-90 -91h-78zM47 86l86 86h539l86 -86l-86 -86h-539z" />
<glyph unicode="M" horiz-adv-x="1775" d="M-53 809h80l90 -90v-633l-84 -86l-84 86zM-53 1452l84 86l86 -86v-532l-90 -91h-78zM47 1552l84 86h541l86 -86l-86 -86h-539zM686 719l86 84l86 -84v-633l-84 -86l-86 86zM686 920v532l86 86l86 -86l-2 -532l-84 -84zM788 1552l84 86h539l86 -86l-84 -86h-539zM1427 86 v633l91 90h81v-723l-86 -86zM1427 920v532l86 86l86 -86v-623h-79z" />
<glyph unicode="N" d="M-53 809h80l90 -90v-633l-84 -86l-84 86zM-53 1552l84 86l86 -86v-632l-90 -91h-78zM135 1341v166h80l451 -448l-2 -135h-111zM686 719l90 90h82v-723l-84 -86l-86 86zM686 920v632l86 86l86 -86v-723h-80z" />
<glyph unicode="O" d="M-53 809h80l90 -90v-533l-84 -86l-84 86zM-53 1452l84 86l86 -86v-532l-90 -91h-78zM47 86l86 86h539l86 -86l-86 -86h-539zM47 1552l84 86h541l86 -86l-86 -86h-539zM686 719l90 90h82v-623l-86 -86l-84 86zM686 920v532l86 86l86 -86v-623h-80z" />
<glyph unicode="P" horiz-adv-x="1040" d="M-53 809h80l90 -90v-633l-84 -86l-84 86zM-51 1622l170 -170v-532l-88 -91h-80zM-35 1638h711l86 -86l-86 -86h-541zM49 819l84 86h543l86 -86l-86 -86h-541zM690 920l2 532l84 86l86 -86v-532l-86 -84z" />
<glyph unicode="Q" d="M-53 809h80l90 -90v-533l-84 -86l-84 86zM-53 1452l84 86l86 -86v-532l-90 -91h-78zM47 86l86 86h539l86 -86l-86 -86h-539zM47 1552l84 86h541l86 -86l-86 -86h-539zM483 485v246h31l145 -244v-292zM686 719l90 90h82v-623l-86 -86l-84 86zM686 920v532l86 86l86 -86 v-623h-80z" />
<glyph unicode="R" horiz-adv-x="1040" d="M-53 809h80l90 -90v-633l-84 -86l-84 86zM-51 1622l170 -170v-532l-88 -91h-80zM-35 1638h711l86 -86l-86 -86h-541zM49 819l84 86h543l86 -86l-86 -86h-541zM141 614v97h140l581 -621l2 -90h-147zM690 920l2 532l84 86l86 -86v-532l-86 -84z" />
<glyph unicode="S" horiz-adv-x="1038" d="M-53 279l84 86l86 -86v-93l-84 -86l-84 86zM-51 920l2 532l82 86l86 -86v-532l-86 -84zM45 819l86 86h541l86 -86l-84 -86h-543zM47 86l86 86h539l86 -86l-86 -86h-539zM49 1552l86 86h539l86 -86l-86 -86h-539zM688 719l86 84l86 -84v-533l-84 -86l-86 86zM688 1360 l2 92l84 86l86 -86v-92l-86 -86z" />
<glyph unicode="T" horiz-adv-x="993" d="M-53 1552l84 86h700l86 -86l-86 -86h-250l-100 101l-100 -101h-250zM293 719l86 84l86 -84l2 -633l-86 -86l-86 86zM293 920l2 532l84 86l86 -86v-532l-86 -84z" />
<glyph unicode="U" d="M-53 809h80l90 -90v-533l-84 -86l-84 86zM-53 1552l84 86l86 -86v-632l-90 -91h-78zM47 86l86 86h539l86 -86l-86 -86h-539zM686 719l90 90h82v-623l-86 -86l-84 86zM686 920v632l86 86l86 -86v-723h-80z" />
<glyph unicode="V" horiz-adv-x="1038" d="M-53 707v102h143l303 -596v-213h-80zM-49 829v723l82 86l86 -86v-653l-37 -70h-131zM414 213l301 596h145v-102l-366 -707h-78zM688 1552l86 86l86 -86l2 -723h-133l-39 70z" />
<glyph unicode="W" horiz-adv-x="1775" d="M-53 809h80l90 -90v-533l-84 -86l-84 86zM-53 1552l84 86l86 -86v-632l-90 -91h-78zM47 86l86 86h539l86 -86l-86 -86h-539zM686 719l86 84l86 -84v-533l-86 -86l-84 86zM686 920v632l86 86l86 -86l-2 -632l-84 -84zM788 86l86 86h539l86 -86l-86 -86h-539zM1427 186v533 l91 90h81v-623l-86 -86zM1427 920v632l86 86l86 -86v-723h-79z" />
<glyph unicode="X" horiz-adv-x="1017" d="M-53 0v152l336 657h98l2 -184l-322 -625h-114zM-53 1487v151h112l322 -624l2 -185h-98zM403 625v184h99l338 -657l2 -152h-117zM403 1014l322 624h115v-151l-336 -658h-98z" />
<glyph unicode="Y" d="M-53 920v632l84 86l86 -86v-632l-86 -84zM-41 86l82 86h631l86 -86l-86 -86h-629zM43 819l86 86h541l86 -86l-86 -86h-541zM686 719l86 84l86 -84v-533l-86 -86l-84 86zM686 920v632l86 86l86 -86l-2 -632l-84 -84z" />
<glyph unicode="Z" horiz-adv-x="876" d="M-51 86l82 86h563l86 -86l-86 -86h-561zM-31 1552l84 86h559l86 -86l-86 -86h-559zM27 193v278l194 338h90v-184l-243 -432h-41zM334 829v185l241 432h41v-279l-194 -338h-88z" />
<glyph unicode="[" horiz-adv-x="587" d="M-53 16v793h80l88 -90l2 -533zM-53 1622l170 -170l-2 -532l-88 -91h-78zM-39 0l172 172h168l111 -111v-61h-451zM-37 1638h449v-61l-111 -111h-170z" />
<glyph unicode="\" horiz-adv-x="1017" d="M-53 1497v141h112l322 -614l2 -195h-90zM403 614v195h89l348 -668l2 -141h-117z" />
<glyph unicode="]" horiz-adv-x="587" d="M-53 0v61l108 111h170l172 -172h-450zM-53 1577v61h448l-170 -172h-170zM240 719l90 90h82l-2 -793l-168 170zM240 920v532l172 170v-793h-80z" />
<glyph unicode="_" horiz-adv-x="833" d="M49 86l86 86h539l86 -86l-84 -86h-541z" />
<glyph unicode="a" horiz-adv-x="1042" d="M-53 809h80l90 -90v-633l-84 -86l-84 86zM-53 1450l86 88l86 -86v-532l-88 -91h-82zM49 819l84 86h543l86 -86l-86 -86h-541zM51 1552l86 86h539l86 -86l-86 -86h-539zM690 920l2 532l84 86l88 -88l2 -621h-84zM694 86v633l90 90h80l2 -723l-86 -86z" />
<glyph unicode="b" horiz-adv-x="1038" d="M-53 16v793h80l90 -90v-533zM-53 1622l170 -170v-532l-90 -91h-78zM-39 0l172 172h541l86 -86l-86 -86h-713zM-37 1638h711l86 -86l-86 -86h-541zM45 819l86 86h541l86 -86l-84 -86h-543zM688 719l86 84l86 -84v-533l-84 -86l-86 86zM688 920l2 532l84 86l86 -86v-532 l-86 -84z" />
<glyph unicode="c" d="M-53 809h80l90 -90v-533l-84 -86l-84 86zM-53 1452l84 86l86 -86v-532l-90 -91h-78zM47 86l86 86h539l86 -86l-86 -86h-539zM47 1552l84 86h541l86 -86l-86 -86h-539zM686 279l84 86l86 -86l2 -93l-86 -86l-84 86zM686 1360v92l86 86l86 -86v-92l-86 -86z" />
<glyph unicode="d" horiz-adv-x="1038" d="M-53 16v793h80l90 -90v-533zM-53 1622l170 -170v-532l-90 -91h-78zM-39 0l172 172h541l86 -86l-86 -86h-713zM-37 1638h711l86 -86l-86 -86h-541zM688 719l90 90h82v-623l-84 -86l-86 86zM688 920l2 532l84 86l86 -86l2 -623h-82z" />
<glyph unicode="e" horiz-adv-x="933" d="M-53 809h80l90 -90v-533l-84 -86l-84 86zM-53 1452l84 86l86 -86v-532l-90 -91h-78zM43 819l86 86h420l86 -86l-86 -86h-420zM47 86l86 86h539l86 -86l-86 -86h-539zM47 1552l84 86h541l86 -86l-86 -86h-539z" />
<glyph unicode="f" horiz-adv-x="933" d="M-53 809h80l90 -90v-633l-84 -86l-84 86zM-53 1452l84 86l86 -86v-532l-90 -91h-78zM43 819l86 86h420l86 -86l-86 -86h-420zM47 1552l84 86h541l86 -86l-86 -86h-539z" />
<glyph unicode="g" d="M-53 809h80l90 -90v-533l-84 -86l-84 86zM-53 1452l84 86l86 -86v-532l-90 -91h-78zM47 86l86 86h539l86 -86l-86 -86h-539zM47 1552l84 86h541l86 -86l-86 -86h-539zM416 819l84 86h342l-172 -172h-168zM686 719l172 170v-703l-86 -86l-84 86z" />
<glyph unicode="h" d="M-53 809h80l90 -90v-633l-84 -86l-84 86zM-53 1552l84 86l86 -86v-632l-90 -91h-78zM43 819l86 86h541l86 -86l-86 -86h-541zM686 719l90 90h82v-723l-84 -86l-86 86zM686 920v632l86 86l86 -86v-723h-80z" />
<glyph unicode="i" horiz-adv-x="294" d="M-53 719l84 84l86 -84v-633l-84 -86l-84 86zM-53 920v632l84 86l86 -86v-632l-86 -84z" />
<glyph unicode="j" horiz-adv-x="1038" d="M-53 279l84 86l86 -86v-93l-84 -86l-84 86zM47 86l86 86h539l86 -86l-86 -86h-539zM688 719l90 90h82v-623l-84 -86l-86 86zM688 920l2 632l84 86l86 -86l2 -723h-82z" />
<glyph unicode="k" horiz-adv-x="1026" d="M-53 809h80l90 -90v-633l-84 -86l-84 86zM-53 1552l84 86l86 -86v-632l-90 -91h-78zM43 819l86 86h170l86 -86l-86 -86h-170zM338 739l68 70h83l359 -657l2 -152h-107zM338 899l403 739h107v-151l-356 -658h-86z" />
<glyph unicode="l" horiz-adv-x="933" d="M-53 809h80l90 -90v-533l-84 -86l-84 86zM-53 1552l84 86l86 -86v-632l-90 -91h-78zM47 86l86 86h539l86 -86l-86 -86h-539z" />
<glyph unicode="m" d="M-53 809h80l90 -90v-633l-84 -86l-84 86zM-53 1552l84 86l86 -86v-632l-90 -91h-78zM137 1149v307h21l231 -442l2 -185h-80zM412 829v185l233 442h21v-307l-174 -320h-80zM686 719l90 90h82v-723l-84 -86l-86 86zM686 920v632l86 86l86 -86v-723h-80z" />
<glyph unicode="n" d="M-53 809h80l90 -90v-633l-84 -86l-84 86zM-53 1552l84 86l86 -86v-632l-90 -91h-78zM135 1341v166h80l451 -448l-2 -135h-111zM686 719l90 90h82v-723l-84 -86l-86 86zM686 920v632l86 86l86 -86v-723h-80z" />
<glyph unicode="o" d="M-53 809h80l90 -90v-533l-84 -86l-84 86zM-53 1452l84 86l86 -86v-532l-90 -91h-78zM47 86l86 86h539l86 -86l-86 -86h-539zM47 1552l84 86h541l86 -86l-86 -86h-539zM686 719l90 90h82v-623l-86 -86l-84 86zM686 920v532l86 86l86 -86v-623h-80z" />
<glyph unicode="p" horiz-adv-x="1040" d="M-53 809h80l90 -90v-633l-84 -86l-84 86zM-51 1622l170 -170v-532l-88 -91h-80zM-35 1638h711l86 -86l-86 -86h-541zM49 819l84 86h543l86 -86l-86 -86h-541zM690 920l2 532l84 86l86 -86v-532l-86 -84z" />
<glyph unicode="q" d="M-53 809h80l90 -90v-533l-84 -86l-84 86zM-53 1452l84 86l86 -86v-532l-90 -91h-78zM47 86l86 86h539l86 -86l-86 -86h-539zM47 1552l84 86h541l86 -86l-86 -86h-539zM483 485v246h31l145 -244v-292zM686 719l90 90h82v-623l-86 -86l-84 86zM686 920v532l86 86l86 -86 v-623h-80z" />
<glyph unicode="r" horiz-adv-x="1040" d="M-53 809h80l90 -90v-633l-84 -86l-84 86zM-51 1622l170 -170v-532l-88 -91h-80zM-35 1638h711l86 -86l-86 -86h-541zM49 819l84 86h543l86 -86l-86 -86h-541zM141 614v97h140l581 -621l2 -90h-147zM690 920l2 532l84 86l86 -86v-532l-86 -84z" />
<glyph unicode="s" horiz-adv-x="1038" d="M-53 279l84 86l86 -86v-93l-84 -86l-84 86zM-51 920l2 532l82 86l86 -86v-532l-86 -84zM45 819l86 86h541l86 -86l-84 -86h-543zM47 86l86 86h539l86 -86l-86 -86h-539zM49 1552l86 86h539l86 -86l-86 -86h-539zM688 719l86 84l86 -84v-533l-84 -86l-86 86zM688 1360 l2 92l84 86l86 -86v-92l-86 -86z" />
<glyph unicode="t" horiz-adv-x="993" d="M-53 1552l84 86h700l86 -86l-86 -86h-250l-100 101l-100 -101h-250zM293 719l86 84l86 -84l2 -633l-86 -86l-86 86zM293 920l2 532l84 86l86 -86v-532l-86 -84z" />
<glyph unicode="u" d="M-53 809h80l90 -90v-533l-84 -86l-84 86zM-53 1552l84 86l86 -86v-632l-90 -91h-78zM47 86l86 86h539l86 -86l-86 -86h-539zM686 719l90 90h82v-623l-86 -86l-84 86zM686 920v632l86 86l86 -86v-723h-80z" />
<glyph unicode="v" horiz-adv-x="1038" d="M-53 707v102h143l303 -596v-213h-80zM-49 829v723l82 86l86 -86v-653l-37 -70h-131zM414 213l301 596h145v-102l-366 -707h-78zM688 1552l86 86l86 -86l2 -723h-133l-39 70z" />
<glyph unicode="w" d="M-53 809h80l90 -90v-633l-84 -86l-84 86zM-53 1552l84 86l86 -86v-632l-90 -91h-78zM135 182l2 307l174 320h78v-184l-231 -443h-23zM412 625v184h77l177 -320v-307h-23zM686 719l90 90h82v-723l-84 -86l-86 86zM686 920v632l86 86l86 -86v-723h-80z" />
<glyph unicode="x" horiz-adv-x="1017" d="M-53 0v152l336 657h98l2 -184l-322 -625h-114zM-53 1487v151h112l322 -624l2 -185h-98zM403 625v184h99l338 -657l2 -152h-117zM403 1014l322 624h115v-151l-336 -658h-98z" />
<glyph unicode="y" horiz-adv-x="1038" d="M-53 1518v120h133l313 -634v-175h-108zM317 86v633l84 84l86 -84l2 -633l-86 -86zM414 829v175l311 634h135v-120l-338 -689h-108z" />
<glyph unicode="z" horiz-adv-x="876" d="M-51 86l82 86h563l86 -86l-86 -86h-561zM-31 1552l84 86h559l86 -86l-86 -86h-559zM27 193v278l194 338h90v-184l-243 -432h-41zM334 829v185l241 432h41v-279l-194 -338h-88z" />
<glyph unicode="|" horiz-adv-x="294" d="M-53 0v719l84 84l86 -84v-719l-86 -86zM-53 920v718l84 86l86 -86v-718l-86 -84z" />
<glyph unicode="&#x2000;" horiz-adv-x="862" />
<glyph unicode="&#x2001;" horiz-adv-x="1724" />
<glyph unicode="&#x2002;" horiz-adv-x="862" />
<glyph unicode="&#x2003;" horiz-adv-x="1724" />
<glyph unicode="&#x2004;" horiz-adv-x="574" />
<glyph unicode="&#x2005;" horiz-adv-x="431" />
<glyph unicode="&#x2006;" horiz-adv-x="287" />
<glyph unicode="&#x2007;" horiz-adv-x="287" />
<glyph unicode="&#x2008;" horiz-adv-x="215" />
<glyph unicode="&#x2009;" horiz-adv-x="344" />
<glyph unicode="&#x200a;" horiz-adv-x="95" />
<glyph unicode="&#x202f;" horiz-adv-x="344" />
<glyph unicode="&#x205f;" horiz-adv-x="431" />
<glyph unicode="&#x25fc;" horiz-adv-x="1638" d="M0 0v1638h1638v-1638h-1638z" />
</font>
</defs>
</svg>
